<svg id="Layer_1" data-name="Layer 1" width="32" height="32" xmlns="http://www.w3.org/2000/svg" viewBox="350 270 500 300"><defs><style>.cls-1{fill:#690303;}</style></defs><path class="cls-1" d="M593.42,288.9c4.1,7.38,8.23,14.74,12.3,22.14,1.62,2.93,3.22,5.87,4.62,8.91,1.29,2.8,3.36,3.54,6.3,3.52,15.74-.11,31.48,0,47.21-.15,3.57,0,5.86,1.19,7.65,4.17,5.45,9.05,11,18,16.59,27,1.68,2.7,1.54,4.24-1.86,5.51-25,9.31-49.82,19.05-74.88,28.16-18.9,6.87-32.61,28.75-30.61,49.06,1.39,14.05,8,24.57,18.48,33.52,7.66,6.55,17.12,8.6,26.11,11.84,17.2,6.2,34.52,12,51.78,18.07,2.12.74,3.64,1.57,2.67,4.56-4.81,14.91-9.33,29.91-14.14,44.82-.38,1.17-2.15,2.07-3.46,2.72-.8.41-2,.12-3,.12H404.44c-8.08,0-8,0-9.18-8Q390.37,511,385.4,477.2c-.22-1.46-.72-2.88-1.08-4.32v-5.23c6.67-.23,13.35-.59,20-.51.9,0,2.06,2.21,2.58,3.59.89,2.41,1.38,5,2,7.47a5,5,0,0,0,1-3.13c0-21.68-.07-43.36,0-65.05,0-2.58-1.33-3.6-3.49-4.58-5.09-2.31-7.25-6.62-7.17-12.06s2.3-9.66,7.29-11.6c3.63-1.41,5.55-3.79,7.21-7,8.23-15.91,16.62-31.73,24.87-47.63a5.73,5.73,0,0,1,6-3.47c5.56.21,5.41.08,5.86-5.74.1-1.38,1.41-3.63,2.4-3.77,2.26-.32,4-.69,5.22-2.83a2.76,2.76,0,0,1,2.28-.94c3.8.44,8.46-2.05,11,3.05.16.32.87.51,1.33.52,4.08.05,4.62,2.67,4.26,5.87-.34,3,1.05,4.05,3.9,4,3.49-.11,7,.14,10.49-.11s4.75,1.41,4.54,4.6-.52,6.16-.7,9.25c-1,17.83-2.08,35.66-3,53.51-.14,2.84-.86,4-3.87,3.92-4.59-.2-9.2,0-14.2,0V407.2h13.44c1.88,0,3.65.24,3.47,2.69q-1.29,17.37-2.7,34.73c-.27,3.44-1.65,5.63-5.61,4.94a11.67,11.67,0,0,0-1.87,0c-7.6,0-7.56,0-7.53,7.28,0,10.47.38,21-.13,31.4-.29,6.08,2.31,10.12,6.6,13.59a7.58,7.58,0,0,0,3.95,1.69c4.11.24,8.24.19,12.36.08.77,0,1.53-.78,2.29-1.2-.49-.78-.82-2-1.5-2.25-6.4-2.2-7.82-7.16-7.39-13.08.89-12.33,2-24.64,2.83-37,.87-12.6,1.59-25.22,2.31-37.83.81-14,1.6-28,2.26-42,.11-2.44,1.11-3.43,3.36-3.33,3.23.15,6.45.6,9.67.54a3.37,3.37,0,0,1,3.79,3.21c.66,4.14,1.16,8.32,1.57,12.5.63,6.39,1,12.81,1.71,19.19,1.65,14.57,3.41,29.12,5.18,43.67.92,7.56,2.39,15.08,2.8,22.66.46,8.33,4,16.37,1.83,25-.71,2.86-1.31,4.75-4.38,5.54-1.86.47-3.35,1.76-2.09,4.44,1.51,0,3.12,0,4.72,0,8.26.16,7.6-.39,6.82-8.26-1.56-15.9-3.87-31.72-5.73-47.6-1.63-13.92-3-27.89-4.61-41.81-1.55-13-3.41-25.91-5-38.88-.3-2.42-1.38-3.58-3.81-3.57-3.12,0-6.25,0-9.37-.08-4.27-.09-5-.79-4.9-5,.47-15.15,1-30.31,1.56-45.46.31-8,.86-16.05,1.3-24.08ZM530.83,549.05q62.94,0,125.88,0c2.88,0,4.63-.78,5.59-3.69,3.9-11.7,7.93-23.36,12-35,1-2.87,0-3.91-2.88-3.85-4.62.09-9.24,0-13.86,0q-121.95,0-243.89.13c-3.74,0-5.47-1.44-6-5.05-1-7.28-2.33-14.52-3.28-21.81-1.36-10.42-1.5-8.41-9.69-8.55-4.94-.09-5.27.32-4.61,5.05q4.69,33.69,9.42,67.38c.69,5,1.05,5.31,6.17,5.31Zm33-228.6c9.24,0,18.47,0,27.71,0,3.54,0,4-.91,2.43-4-2.46-4.76-4.8-9.59-7.55-14.18-.89-1.49-2.9-3.26-4.42-3.29-15.1-.23-30.2-.13-45.3-.12-2.54,0-3.48,1.37-3.53,3.78-.09,4.36-.19,8.72-.55,13.06-.3,3.56,1,4.93,4.63,4.86C546.08,320.32,554.94,320.44,563.8,320.45ZM512.91,431.57h-1.6a29,29,0,0,0-1.13,4.42c-1.35,14.82-2.6,29.65-3.93,44.48-.22,2.38,0,4.31,2.44,5.64,3.18,1.7,6,1.12,8.71-.77a5.61,5.61,0,0,0,2.45-6c-1.82-12.45-3.43-24.94-5.17-37.41C514.2,438.43,513.51,435,512.91,431.57ZM410.09,393.49l-2.26-3.82c-.86,1.37-2.4,2.73-2.39,4.1s1.63,2.55,2.55,3.82Z"/><path class="cls-1" d="M806.23,432c-.12,23-7.63,42.52-23.67,58.07-19.84,19.23-43.95,25.69-70.75,19.05-11.4-2.82-22.11-8.36-33.27-12.28Q647.8,486,616.89,475.71c-16.76-5.6-27.18-17-30.81-34.07-3.6-16.9,2.27-31.14,14.76-42.49,5.58-5.08,13-7.32,20.14-10,17-6.33,33.75-13.22,50.68-19.69,5.93-2.26,12.38-3.3,18.05-6a142.57,142.57,0,0,1,23.56-9.16c22.49-6.21,42.57-.68,60.68,12.76,17.82,13.22,27.87,31.45,31.55,53.17C806.19,424.26,806,428.42,806.23,432Zm-140.44-1c-.07,34.21,27.85,61.52,63,61.57s63.38-27.55,63.4-61.76-28-61.54-63-61.58S665.86,396.61,665.79,430.92Z"/><path class="cls-1" d="M482.23,529.91c-.47,2-.84,3.94-1.45,5.84a4.7,4.7,0,0,1-1.65,2.48,2.4,2.4,0,0,1-2.3-.47,4.93,4.93,0,0,1-.06-3c1.27-4.64,2.67-9.25,4-13.87a3.64,3.64,0,0,1,.75-1.61c1.41-1.3,8.27-.16,9.78,1.54,2,2.22,1.62,4.35-1.58,6.83-2.83,2.18-1.32,4.26-.46,6.58a17.05,17.05,0,0,1,.52,3.89c-1.22-.83-2.79-1.41-3.57-2.54a36.47,36.47,0,0,1-2.76-5.77Zm6.95-6.3L486.44,521a28.3,28.3,0,0,0-2.68,4c-.17.37.9,1.33,1.4,2Z"/><path class="cls-1" d="M461,538.9a19.62,19.62,0,0,1-2.78-2.58c-.58-.76-.55-2-1.11-2.73a17.78,17.78,0,0,0-2.59-2.37,20.94,20.94,0,0,0-1.74,3c-.31.78.09,2.07-.39,2.5a12.12,12.12,0,0,1-3.26,1.55c-.35-.9-1.16-1.94-1-2.69q2.07-7.53,4.58-14.93a3.46,3.46,0,0,1,2.32-1.76c.43-.09,1.77,1.33,1.65,1.8-1.54,6,2.37,9.77,5.32,14a7.55,7.55,0,0,1,1.15,3C463.27,537.84,462.1,538.29,461,538.9Z"/><path class="cls-1" d="M561.71,521.1l-3.88.83-.81-.87c.81-.77,1.58-2.16,2.44-2.22a81.09,81.09,0,0,1,10.8,0c.74,0,1.42,1.35,2.12,2.07-.88.23-2,.92-2.6.6-2.34-1.29-3.32,0-3.88,1.85-1.25,4-2.25,8.11-3.5,12.13a5.74,5.74,0,0,1-1.83,2.77,2.63,2.63,0,0,1-2.29-.46,6.68,6.68,0,0,1,.15-3.35c1-3.33,2.24-6.59,3.23-9.91A13.16,13.16,0,0,0,561.71,521.1Z"/><path class="cls-1" d="M511.37,526.21a34.31,34.31,0,0,1,3.6,1.16c.09,0-.24,1.85-.54,1.9a11.43,11.43,0,0,1-5-.55c-.69,2.8-1.38,5.6-2.29,9.31l-3.76-.21a25.1,25.1,0,0,1,.46-4.09c1.07-4,2.61-7.82,3.35-11.83.65-3.53,2.3-3.6,5.13-2.47l-2.1,6.67Z"/><path class="cls-1" d="M607.32,519.5c-1.7,5.7-3.22,11.2-5.05,16.59-.33,1-2,1.49-3,2.23-.4-1.05-1.33-2.25-1.1-3.13,1.25-4.77,2.8-9.46,4.21-14.19C603.09,518.64,603.86,518.37,607.32,519.5Z"/><path class="cls-1" d="M588.64,520.16c-.91,2.92-1.71,5.26-2.37,7.64-.76,2.73-1.15,5.59-2.21,8.2-.42,1-2.19,1.51-3.35,2.24-.25-1.11-.93-2.32-.68-3.3,1.2-4.66,2.54-9.29,4.09-13.84.33-1,1.64-1.78,2.69-2.25C587.18,518.68,588.11,519.76,588.64,520.16Z"/><path class="cls-1" d="M543.53,519.5c-.14,3-.23,5.47-.37,7.89a77,77,0,0,1-.7,8.47c-.17.93-1.53,1.65-2.34,2.47-.6-.88-1.66-1.72-1.72-2.63a90.8,90.8,0,0,1,0-10.17C538.48,522.83,539.54,520.57,543.53,519.5Z"/><path class="cls-1" d="M536,527.84c.22,1.52.59,2.28.35,2.63-1.7,2.47-3.46,4.9-5.34,7.23a2,2,0,0,1-2,.22,1.93,1.93,0,0,1-.46-1.83C530.73,533.5,533.06,531,536,527.84Z"/><path class="cls-1" d="M460.07,523.36c2-1.35,1.86-5.61,5.67-4.45l.87,1.28-6.06,4Z"/><path class="cls-1" d="M510.79,537.14l5.71-3.1C516.75,538.32,515.45,539.1,510.79,537.14Z"/><path class="cls-1" d="M606.4,527.11l4.3-.3-.6,3-3.85-1Z"/><path class="cls-1" d="M611.87,518.67a30.36,30.36,0,0,1,3.89,1.24c.19.08-.11,1.26-.19,1.94l-4.25-1.56Z"/></svg>